<svg xmlns="http://www.w3.org/2000/svg" viewBox="0 0 512 400.19"><defs><style>.cls-1{fill:#fff;}</style></defs><title>Birds</title><g id="Layer_2" data-name="Layer 2"><g id="Layer_2-2" data-name="Layer 2"><path class="cls-1" d="M510.6,325.42,493,294.9A10.46,10.46,0,0,0,499.23,279l-18.92-32.76a10.45,10.45,0,0,0,8.55-10.28,10.34,10.34,0,0,0-1.73-5.76L428.75,129.05a10.46,10.46,0,0,0-18.1,0L396.9,152.87l-50-86.09a10.45,10.45,0,0,0-18.07,0L314.9,90.67,265.22,5.2a10.45,10.45,0,0,0-18.07,0L197.27,91,183.18,66.78a10.45,10.45,0,0,0-18.07,0l-50,86.07-13.74-23.8a10.45,10.45,0,0,0-18.09,0L24.55,230.72a10.44,10.44,0,0,0,7.14,15.49L12.46,279.52A10.44,10.44,0,0,0,19,294.89L1.4,325.41a10.46,10.46,0,0,0,9,15.68h71.4v38.2H69.15a10.45,10.45,0,0,0,0,20.9H443.22a10.45,10.45,0,0,0,0-20.9H430.15v-38.2h71.4a10.45,10.45,0,0,0,9.05-15.67ZM256.18,31.24l46.64,80.23-24.05,41.36-13.72-23.78a10.46,10.46,0,0,0-18.1,0l-13.74,23.8-23.86-41Zm33.38,209.92,19.31,33.43A10.45,10.45,0,0,0,302.3,290l17.45,30.22H192.25L209.7,290a10.45,10.45,0,0,0-6.57-15.38l19.3-33.43a10.45,10.45,0,0,0-7.13-15.49L256,155.18l13.44,23.27a10.19,10.19,0,0,0,.52.91l26.74,46.31a10.45,10.45,0,0,0-7.14,15.49Zm-261,79L46,290a10.44,10.44,0,0,0-6.56-15.37l19.3-33.43a10.45,10.45,0,0,0-7.13-15.5l40.7-70.49L133,225.67a10.45,10.45,0,0,0-7.14,15.5l19.31,33.43A10.44,10.44,0,0,0,138.6,290l17.45,30.22Zm135.15,59.1H102.75v-38.2H163.7Zm10.45-69.55-8.57-14.84A10.46,10.46,0,0,0,171.83,279l-18.92-32.76a10.45,10.45,0,0,0,8.55-10.28,10.34,10.34,0,0,0-1.73-5.76l-32.6-56.47,47-80.89,47,80.89-32.91,57a10.44,10.44,0,0,0,7.13,15.49l-19.23,33.31a10.46,10.46,0,0,0,6.56,15.38Zm71.4,69.55h-61v-38.2h61Zm81.83,0H266.45v-38.2h60.93Zm10.47-69.55-8.57-14.84A10.46,10.46,0,0,0,335.53,279l-18.92-32.76a10.45,10.45,0,0,0,8.55-10.28,10.34,10.34,0,0,0-1.73-5.76l-32.61-56.49,47-80.86,47,80.9-32.9,57a10.44,10.44,0,0,0,7.13,15.49l-19.23,33.31a10.46,10.46,0,0,0,6.56,15.38Zm71.4,69.55h-61v-38.2h61ZM356,320.19,373.4,290a10.44,10.44,0,0,0-6.57-15.37l19.3-33.43a10.45,10.45,0,0,0-7.13-15.5l40.7-70.49,40.7,70.49a10.45,10.45,0,0,0-7.13,15.5l19.3,33.43A10.44,10.44,0,0,0,466,290l17.44,30.22Z"/></g></g></svg>