<svg xmlns="http://www.w3.org/2000/svg" viewBox="0 0 512 448"><defs><style>.cls-1{fill:#fff;}</style></defs><title>Cafe</title><g id="Layer_2" data-name="Layer 2"><g id="Layer_2-2" data-name="Layer 2"><path class="cls-1" d="M491.37,221c-28.74-18.48-74.65,1.58-79.79,3.9a10.68,10.68,0,0,0,8.86,19.44c10.28-4.68,43.26-15.75,59.39-5.36,7.27,4.67,10.84,13.74,10.84,27.65,0,42.71-86.15,68.52-119.41,74.88L363.71,343a10.66,10.66,0,0,0,2.05,21.12,9.74,9.74,0,0,0,2.06-.21l7.49-1.47C380.9,361.4,512,335.7,512,266.66,512,245.2,505.05,229.86,491.37,221Z"/><path class="cls-1" d="M394.66,170.66H96a32,32,0,0,0-32,32V224A202.18,202.18,0,0,0,173.71,404.16a10.67,10.67,0,1,0,9.79-19A180.9,180.9,0,0,1,85.32,224V202.66A10.67,10.67,0,0,1,96,192H394.66a10.67,10.67,0,0,1,10.67,10.67V224a180.81,180.81,0,0,1-98.2,161.18A10.68,10.68,0,0,0,312,405.33a10.51,10.51,0,0,0,4.88-1.2A202.05,202.05,0,0,0,426.67,224V202.66A32,32,0,0,0,394.66,170.66Z"/><path class="cls-1" d="M489.88,390.57A10.71,10.71,0,0,0,480,384H10.68a10.68,10.68,0,0,0-7.56,18.22L27,426.13A74.22,74.22,0,0,0,79.84,448h331a74.38,74.38,0,0,0,52.85-21.87l23.91-23.94A10.64,10.64,0,0,0,489.88,390.57Zm-41.33,20.48a53,53,0,0,1-37.71,15.61h-331a53,53,0,0,1-37.72-15.61l-5.71-5.72H454.27Z"/><path class="cls-1" d="M328.38,81.31c17.34-21.67,17.34-55.62,0-77.29a10.67,10.67,0,1,0-16.66,13.33c11,13.72,11,36.91,0,50.67-17.37,21.68-17.37,55.62,0,77.29A10.67,10.67,0,1,0,328.36,132C317.35,118.26,317.35,95.07,328.38,81.31Z"/><path class="cls-1" d="M264.29,81.31c17.37-21.67,17.37-55.62,0-77.29a10.67,10.67,0,1,0-16.66,13.33c11,13.72,11,36.91,0,50.67-17.34,21.68-17.34,55.62,0,77.29A10.67,10.67,0,1,0,264.27,132C253.29,118.26,253.29,95.07,264.29,81.31Z"/><path class="cls-1" d="M200.38,81.33c17.34-21.67,17.34-55.61,0-77.29a10.66,10.66,0,0,0-16.66,13.31c11,13.72,11,36.91,0,50.67-17.36,21.68-17.36,55.62,0,77.29A10.67,10.67,0,1,0,200.36,132C189.35,118.26,189.35,95.09,200.38,81.33Z"/></g></g></svg>