<svg xmlns="http://www.w3.org/2000/svg" viewBox="0 0 463.87 512"><defs><style>.cls-1{fill:#fff;}</style></defs><title>Crickets</title><g id="Layer_2" data-name="Layer 2"><g id="Layer_2-2" data-name="Layer 2"><path class="cls-1" d="M462.14,389.15a22.82,22.82,0,0,0-18.08-13.89A210.29,210.29,0,0,1,304.66,38.72,22.82,22.82,0,0,0,289.55,2.23,257.06,257.06,0,0,0,255.85,0a256,256,0,0,0,.34,512h0a256.25,256.25,0,0,0,203-100.26A22.81,22.81,0,0,0,462.14,389.15ZM336.58,450.29A210.34,210.34,0,0,1,61.77,175.49,210.39,210.39,0,0,1,246,45.87,255.77,255.77,0,0,0,397.46,411.7,210.24,210.24,0,0,1,336.58,450.29Z"/></g></g></svg>