<svg xmlns="http://www.w3.org/2000/svg" viewBox="0 0 374.71 512"><defs><style>.cls-1{fill:#fff;}</style></defs><title>Fire</title><g id="Layer_2" data-name="Layer 2"><g id="Layer_2-2" data-name="Layer 2"><path class="cls-1" d="M311.91,180c-34.31-42.75-70.2-87.61-69.14-169.41,0-4.22-2.11-7.39-5.81-9.5-3.69-1.58-7.91-1.58-11.08.53-57.52,41.16-108.72,131.41-93.94,241.18-20-11.61-32.19-31.14-45.92-51.72-4.22-6.86-8.44-13.72-13.19-20.05-2.11-2.64-5.28-4.75-9-4.22a10,10,0,0,0-8.45,4.75C28,214.34,0,266.06,0,322c0,110.3,77.58,190,184.72,190,108.19,0,190-81.8,190-190C374.71,258.15,343,218.57,311.91,180ZM184.72,490.89c-95,0-163.61-71.25-163.61-168.88,0-44.86,20.58-88.14,43.8-125.61,1.06,2.11,2.64,3.69,3.7,5.81,14.25,22.16,28.5,44.33,52.77,58.58a20.8,20.8,0,0,0,31.67-20.59C140.38,150,176.8,74,222.19,32.79c5.27,76,41.16,120.86,73.36,161C326.68,232.29,353.6,265.54,353.6,322,353.6,418.06,280.77,490.89,184.72,490.89Z"/><path class="cls-1" d="M327.21,290.34a10.59,10.59,0,0,0-10.55,10.56c0,34.83-9,66.49-27.45,94.47-3.16,4.75-1.58,11.61,3.17,14.77a10.58,10.58,0,0,0,5.8,1.59,10.39,10.39,0,0,0,9-4.75A194.65,194.65,0,0,0,337.77,300.9,10.59,10.59,0,0,0,327.21,290.34Z"/><path class="cls-1" d="M283.93,419.64a10.71,10.71,0,0,0-14.77,1.06,89,89,0,0,1-10,9.5A10.71,10.71,0,0,0,258.07,445a10.21,10.21,0,0,0,7.92,3.7,11.13,11.13,0,0,0,6.86-2.64A125.66,125.66,0,0,0,285,434.42,10.71,10.71,0,0,0,283.93,419.64Z"/></g></g></svg>