<svg xmlns="http://www.w3.org/2000/svg" viewBox="0 0 512 379.02"><defs><style>.cls-1{fill:#fff;}</style></defs><title>Ocean</title><g id="Layer_2" data-name="Layer 2"><g id="Layer_2-2" data-name="Layer 2"><path class="cls-1" d="M98.68,85.46a111.27,111.27,0,0,0,78.67-32.8A111.18,111.18,0,0,0,256,85.46a111.13,111.13,0,0,0,78.65-32.8,111.21,111.21,0,0,0,78.67,32.8,111.22,111.22,0,0,0,96-55.42,20,20,0,1,0-34.65-20,71.07,71.07,0,0,1-61.33,35.43A71.07,71.07,0,0,1,352,10a20,20,0,0,0-34.65,0A71,71,0,0,1,256,45.43,71.12,71.12,0,0,1,194.67,10,20,20,0,0,0,177.35,0h0A20,20,0,0,0,160,10,71.06,71.06,0,0,1,98.69,45.43,71.08,71.08,0,0,1,37.35,10,20,20,0,1,0,2.7,30,111.18,111.18,0,0,0,98.68,85.46Z"/><path class="cls-1" d="M502,149.47a20,20,0,0,0-27.35,7.31,70.8,70.8,0,0,1-122.66,0,20,20,0,0,0-34.66,0,70.81,70.81,0,0,1-122.67,0,20,20,0,0,0-17.32-10h0a20,20,0,0,0-17.33,10,70.8,70.8,0,0,1-122.66,0,20,20,0,0,0-34.66,20,110.79,110.79,0,0,0,174.66,22.61,110.71,110.71,0,0,0,157.32,0,110.79,110.79,0,0,0,174.65-22.62A20,20,0,0,0,502,149.47Z"/><path class="cls-1" d="M502,296.25a20,20,0,0,0-27.35,7.31,70.8,70.8,0,0,1-122.66,0,20,20,0,0,0-34.66,0,70.81,70.81,0,0,1-122.67,0,20,20,0,0,0-17.32-10h0a20,20,0,0,0-17.33,10,70.8,70.8,0,0,1-122.66,0,20,20,0,1,0-34.66,20,110.8,110.8,0,0,0,174.66,22.62,110.72,110.72,0,0,0,157.32,0A110.79,110.79,0,0,0,509.32,323.6,20,20,0,0,0,502,296.25Z"/></g></g></svg>