<svg xmlns="http://www.w3.org/2000/svg" viewBox="0 0 512 447.29"><defs><style>.cls-1{fill:#fff;}</style></defs><title>Rain</title><g id="Layer_2" data-name="Layer 2"><g id="Layer_2-2" data-name="Layer 2"><path class="cls-1" d="M380.67,87.06c-2.68,0-5.37.08-8.05.24-22-52-74.87-87.3-133.15-87.3C160,0,95.4,63.35,95.4,141.22V142C42.11,146.05,0,189.88,0,243.18,0,299.1,46.37,344.6,103.37,344.6h277.3C453.09,344.6,512,286.84,512,215.83S453.09,87.06,380.67,87.06Zm0,223.82H103.37c-38.4,0-69.65-30.37-69.65-67.7S65,175.47,103.37,175.47a72.1,72.1,0,0,1,8.29.56,16.85,16.85,0,0,0,18.64-19.18,108.87,108.87,0,0,1-1.18-15.63c0-59.27,49.51-107.5,110.35-107.5,48.43,0,91.91,31.56,105.73,76.74a16.86,16.86,0,0,0,18.92,11.7,100.54,100.54,0,0,1,16.55-1.38c53.82,0,97.61,42.64,97.61,95.05S434.49,310.88,380.67,310.88Z"/><path class="cls-1" d="M106.91,370.2,58.6,418.5a16.86,16.86,0,1,0,23.84,23.85L130.75,394a16.86,16.86,0,0,0-23.84-23.84Z"/><path class="cls-1" d="M210,370.2l-48.3,48.31a16.86,16.86,0,0,0,23.85,23.84L233.81,394A16.86,16.86,0,0,0,210,370.2Z"/><path class="cls-1" d="M313,370.2l-48.3,48.31a16.86,16.86,0,0,0,23.85,23.84L336.86,394A16.86,16.86,0,0,0,313,370.2Z"/><path class="cls-1" d="M416.07,370.2l-48.31,48.3a16.86,16.86,0,1,0,23.84,23.85L439.91,394a16.86,16.86,0,0,0-23.84-23.84Z"/></g></g></svg>