<svg xmlns="http://www.w3.org/2000/svg" viewBox="0 0 512 434.81"><defs><style>.cls-1{fill:#fff;}</style></defs><title>Thunder</title><g id="Layer_2" data-name="Layer 2"><g id="Layer_2-2" data-name="Layer 2"><path class="cls-1" d="M477,123c-21.86-21.31-51.91-35-84.7-35a80.11,80.11,0,0,0-11.47.55A152.33,152.33,0,0,0,94,118,105.81,105.81,0,0,0,106,329H210.92L177,415.83a13.73,13.73,0,0,0,8.2,18,13.5,13.5,0,0,0,15.84-4.37l88-101.09H391.79a122,122,0,0,0,85.24-35,119.7,119.7,0,0,0,35-85.24A122,122,0,0,0,477,123ZM273.21,304.36,271.57,306l-39.89,45.35,12-31.15c.54-.54.54-1.63,1.09-2.18l1.09-2.73a11.05,11.05,0,0,0,1.64-6,14.47,14.47,0,0,0-14.21-14.21H211.47l47-97.81h36.06l-36.61,61.2a12.53,12.53,0,0,0-2.18,7.65,14.46,14.46,0,0,0,14.2,14.21h23.5Zm184.15-30.6a91.26,91.26,0,0,1-65,26.77H313.65L334.41,277c4.92-6,4.37-14.76-1.09-19.67a14.81,14.81,0,0,0-9.29-3.28H294.52l36.61-62.29a14.13,14.13,0,0,0-4.91-19.13c-2.19-1.09-4.92-2.19-7.11-2.19H249.17a14.48,14.48,0,0,0-13.11,8.75l-58.47,121.3H106A77.42,77.42,0,0,1,29,222.94a77.67,77.67,0,0,1,22.4-54.64,76.84,76.84,0,0,1,54.65-23,11.05,11.05,0,0,0,6-1.64h.54a13.38,13.38,0,0,0,6-9.84,121.59,121.59,0,0,1,42.08-75.4,125.08,125.08,0,0,1,80.87-30.06,123.22,123.22,0,0,1,71,22.41C329,62.29,342.61,77.05,351.9,95.08c-3.28,1.09-6.56,2.73-9.84,3.82A120.35,120.35,0,0,0,301.63,129c-4.92,6-4.37,14.75,1.09,19.67,6,4.92,14.75,4.37,19.67-1.1a92.49,92.49,0,0,1,31.15-23,88.35,88.35,0,0,1,37.7-8.19,91.42,91.42,0,0,1,91.8,91.8C484.13,233.87,473.75,256.82,457.36,273.76Z"/></g></g></svg>