<svg xmlns="http://www.w3.org/2000/svg" viewBox="0 0 489.17 469.1"><defs><style>.cls-1{fill:#fff;}</style></defs><title>Wind</title><g id="Layer_2" data-name="Layer 2"><g id="Layer_2-2" data-name="Layer 2"><path class="cls-1" d="M410.64,302.36A96.68,96.68,0,0,0,341.45,274H68.15a17.86,17.86,0,0,0-18,18c0,9,8.3,17.3,18,17.3h273.3c17.3,0,32.52,6.91,44.28,18a62.8,62.8,0,0,1,18,44.29c0,17.29-6.92,32.51-18,44.28a62.76,62.76,0,0,1-44.28,18c-17.3,0-32.52-6.92-44.28-18a62.77,62.77,0,0,1-18-44.28,18.31,18.31,0,0,0-18-18c-9.69,0-17.3,8.3-17.3,18,0,27,11.07,51.2,28.37,69.19a96.7,96.7,0,0,0,69.19,28.36c27,0,51.2-11.07,69.19-28.36A96.68,96.68,0,0,0,439,371.55C439,344.56,427.94,320.35,410.64,302.36Z"/><path class="cls-1" d="M453.88,35.29A119.19,119.19,0,0,0,368.78,0a120.83,120.83,0,0,0-85.1,35.29,119.19,119.19,0,0,0-35.29,85.1,18,18,0,0,0,36,0,85.12,85.12,0,1,1,85.1,85.1H18a17.86,17.86,0,0,0-18,18c0,10.38,6.92,17.3,17.3,17.3H368.78a120.85,120.85,0,0,0,85.1-35.29,119.19,119.19,0,0,0,35.29-85.1A120.85,120.85,0,0,0,453.88,35.29Z"/></g></g></svg>